<svg width="186" height="124" viewBox="0 0 186 124" fill="none" xmlns="http://www.w3.org/2000/svg">
<mask id="path-1-outside-1" maskUnits="userSpaceOnUse" x="71.2822" y="28.9287" width="83" height="95" fill="black">
<rect fill="white" x="71.2822" y="28.9287" width="83" height="95"/>
<path d="M146.929 54.7734V50.9287C135.496 66.9943 117.97 78.3614 97.4048 83.0027L92.507 84.1094C84.235 85.9769 78.3867 92.3259 78.2838 99.5501C78.2204 104.055 80.1109 108.298 83.6119 111.499C87.1103 114.702 91.781 116.465 96.7632 116.465H107.324C117.02 116.465 125.191 110.524 127.663 102.467C125.36 103.476 122.913 104.287 120.323 104.828L110.559 106.865L109.371 102.217L119.134 100.18C130.562 97.7995 139 89.6522 141.117 79.5802C136.964 83.4845 131.805 86.566 125.925 88.4621L113.495 92.4737L111.718 87.9827L124.148 83.9711C137.775 79.5754 146.929 67.841 146.929 54.7734ZM96.7632 92.6144C92.3961 92.6144 88.8423 95.8247 88.8423 99.7696C88.8423 103.714 92.3961 106.925 96.7632 106.925V111.695C89.4839 111.695 83.5617 106.345 83.5617 99.7696C83.5617 93.194 89.4839 87.8444 96.7632 87.8444V92.6144Z"/>
</mask>
<path d="M146.929 54.7734V50.9287C135.496 66.9943 117.97 78.3614 97.4048 83.0027L92.507 84.1094C84.235 85.9769 78.3867 92.3259 78.2838 99.5501C78.2204 104.055 80.1109 108.298 83.6119 111.499C87.1103 114.702 91.781 116.465 96.7632 116.465H107.324C117.02 116.465 125.191 110.524 127.663 102.467C125.36 103.476 122.913 104.287 120.323 104.828L110.559 106.865L109.371 102.217L119.134 100.18C130.562 97.7995 139 89.6522 141.117 79.5802C136.964 83.4845 131.805 86.566 125.925 88.4621L113.495 92.4737L111.718 87.9827L124.148 83.9711C137.775 79.5754 146.929 67.841 146.929 54.7734ZM96.7632 92.6144C92.3961 92.6144 88.8423 95.8247 88.8423 99.7696C88.8423 103.714 92.3961 106.925 96.7632 106.925V111.695C89.4839 111.695 83.5617 106.345 83.5617 99.7696C83.5617 93.194 89.4839 87.8444 96.7632 87.8444V92.6144Z" fill="url(#paint0_linear)"/>
<path d="M146.929 54.7734V50.9287C135.496 66.9943 117.97 78.3614 97.4048 83.0027L92.507 84.1094C84.235 85.9769 78.3867 92.3259 78.2838 99.5501C78.2204 104.055 80.1109 108.298 83.6119 111.499C87.1103 114.702 91.781 116.465 96.7632 116.465H107.324C117.02 116.465 125.191 110.524 127.663 102.467C125.36 103.476 122.913 104.287 120.323 104.828L110.559 106.865L109.371 102.217L119.134 100.18C130.562 97.7995 139 89.6522 141.117 79.5802C136.964 83.4845 131.805 86.566 125.925 88.4621L113.495 92.4737L111.718 87.9827L124.148 83.9711C137.775 79.5754 146.929 67.841 146.929 54.7734ZM96.7632 92.6144C92.3961 92.6144 88.8423 95.8247 88.8423 99.7696C88.8423 103.714 92.3961 106.925 96.7632 106.925V111.695C89.4839 111.695 83.5617 106.345 83.5617 99.7696C83.5617 93.194 89.4839 87.8444 96.7632 87.8444V92.6144Z" stroke="white" stroke-width="14" mask="url(#path-1-outside-1)"/>
<mask id="path-2-outside-2" maskUnits="userSpaceOnUse" x="0" y="0.000488281" width="85" height="90" fill="black">
<rect fill="white" y="0.000488281" width="85" height="90"/>
<path d="M63.3885 51.1823L58.2238 50.0757C36.5374 45.4322 18.0585 34.0679 6 18.0005V21.845C6 34.9122 15.6529 46.6462 30.0223 51.044L43.1305 55.0555L41.2567 59.5464L28.1485 55.5349C21.9481 53.6388 16.5105 50.5551 12.1281 46.6533C14.3583 56.725 23.2594 64.8696 35.3096 67.2522L45.6057 69.2889L44.3528 73.9372L34.0567 71.9004C31.3253 71.359 28.7471 70.5482 26.3165 69.5393C28.9226 77.5957 37.5397 83.5366 47.7634 83.5366H58.9003C64.1542 83.5366 69.0795 81.7741 72.7714 78.5688C76.4633 75.3682 78.4568 71.1253 78.39 66.6202C78.2786 59.3985 72.1115 53.0498 63.3885 51.1823ZM58.9003 78.7667V73.9968C63.5055 73.9968 67.253 70.7867 67.253 66.8419C67.253 62.8972 63.5055 59.6871 58.9003 59.6871V54.9172C66.5765 54.9172 72.8215 60.2666 72.8215 66.8419C72.8215 73.4173 66.5765 78.7667 58.9003 78.7667Z"/>
</mask>
<path d="M63.3885 51.1823L58.2238 50.0757C36.5374 45.4322 18.0585 34.0679 6 18.0005V21.845C6 34.9122 15.6529 46.6462 30.0223 51.044L43.1305 55.0555L41.2567 59.5464L28.1485 55.5349C21.9481 53.6388 16.5105 50.5551 12.1281 46.6533C14.3583 56.725 23.2594 64.8696 35.3096 67.2522L45.6057 69.2889L44.3528 73.9372L34.0567 71.9004C31.3253 71.359 28.7471 70.5482 26.3165 69.5393C28.9226 77.5957 37.5397 83.5366 47.7634 83.5366H58.9003C64.1542 83.5366 69.0795 81.7741 72.7714 78.5688C76.4633 75.3682 78.4568 71.1253 78.39 66.6202C78.2786 59.3985 72.1115 53.0498 63.3885 51.1823ZM58.9003 78.7667V73.9968C63.5055 73.9968 67.253 70.7867 67.253 66.8419C67.253 62.8972 63.5055 59.6871 58.9003 59.6871V54.9172C66.5765 54.9172 72.8215 60.2666 72.8215 66.8419C72.8215 73.4173 66.5765 78.7667 58.9003 78.7667Z" fill="url(#paint1_linear)"/>
<path d="M63.3885 51.1823L58.2238 50.0757C36.5374 45.4322 18.0585 34.0679 6 18.0005V21.845C6 34.9122 15.6529 46.6462 30.0223 51.044L43.1305 55.0555L41.2567 59.5464L28.1485 55.5349C21.9481 53.6388 16.5105 50.5551 12.1281 46.6533C14.3583 56.725 23.2594 64.8696 35.3096 67.2522L45.6057 69.2889L44.3528 73.9372L34.0567 71.9004C31.3253 71.359 28.7471 70.5482 26.3165 69.5393C28.9226 77.5957 37.5397 83.5366 47.7634 83.5366H58.9003C64.1542 83.5366 69.0795 81.7741 72.7714 78.5688C76.4633 75.3682 78.4568 71.1253 78.39 66.6202C78.2786 59.3985 72.1115 53.0498 63.3885 51.1823ZM58.9003 78.7667V73.9968C63.5055 73.9968 67.253 70.7867 67.253 66.8419C67.253 62.8972 63.5055 59.6871 58.9003 59.6871V54.9172C66.5765 54.9172 72.8215 60.2666 72.8215 66.8419C72.8215 73.4173 66.5765 78.7667 58.9003 78.7667Z" stroke="white" stroke-width="12" mask="url(#path-2-outside-2)"/>
<path d="M43.5481 64.5502C42.6742 64.5502 41.9932 64.8843 41.5049 65.5525C41.0294 66.2207 40.7917 67.3837 40.7917 69.0413C40.7917 72.2153 41.6655 73.8023 43.4131 73.8023C44.107 73.8023 44.7239 73.6931 45.2636 73.4747V71.2965C44.6725 71.1038 44.2677 70.8661 44.0492 70.5834L44.242 69.0606H48.7524L48.9452 70.5834C48.7781 70.789 48.4761 70.9881 48.0392 71.1809V74.7468C47.4224 75.1966 46.7413 75.5178 45.996 75.7106C45.2636 75.8905 44.3448 75.9805 43.2397 75.9805C41.4021 75.9805 40.0528 75.46 39.1918 74.4192C38.3309 73.3654 37.9004 71.6628 37.9004 69.3112C37.9004 66.9467 38.408 65.1991 39.4231 64.0683C40.4512 62.9375 41.8518 62.3721 43.6252 62.3721C45.4113 62.3721 46.8698 62.7769 48.0007 63.5864C48.0007 63.6635 48.0007 63.8113 48.0007 64.0297C48.0007 64.2482 47.9557 64.6209 47.8657 65.1477C47.7758 65.6746 47.6473 66.1051 47.4802 66.4392H45.7069C45.5141 66.0794 45.3856 65.5461 45.3214 64.8393C44.7688 64.6466 44.1777 64.5502 43.5481 64.5502Z" fill="#0D462E"/>
<path d="M60.9215 75.9419L59.9384 72.8964C59.7328 72.2796 59.5722 71.5086 59.4565 70.5834L59.3987 70.1208H59.1289C59.0004 71.1231 58.8076 72.0419 58.5506 72.8771L57.6447 75.9419H54.9076L52.4789 68.3667C51.9263 68.1739 51.5472 67.9426 51.3416 67.6728L51.5344 66.1886H56.0448L56.2376 67.6728C56.0063 67.9426 55.6143 68.1739 55.0618 68.3667L56.1797 73.2819H56.4496C56.5909 72.6008 56.758 71.9005 56.9507 71.1809L58.2615 66.2271H60.4203L61.7118 71.1423L62.1936 73.2819H62.4635C62.9389 71.1102 63.2602 69.6517 63.4273 68.9064L63.5429 68.3667C62.9647 68.1611 62.5791 67.9298 62.3864 67.6728L62.5791 66.1886H66.8583L67.051 67.6728C66.8326 67.9683 66.4278 68.2125 65.8367 68.4052L63.4273 75.9419H60.9215Z" fill="#0D462E"/>
<path d="M74.3651 75.9805C72.8231 75.9805 71.6601 75.5692 70.8763 74.7468C70.1053 73.9244 69.7198 72.7294 69.7198 71.1616C69.7198 70.2107 69.8547 69.3947 70.1245 68.7137C70.3944 68.0197 70.7606 67.4865 71.2232 67.1138C72.1227 66.3942 73.17 66.0344 74.3651 66.0344C75.5602 66.0344 76.4725 66.3428 77.1022 66.9596C77.7447 67.5636 78.066 68.6558 78.066 70.2364C78.066 71.1616 77.6098 71.6242 76.6974 71.6242H72.5147C72.5661 72.4338 72.7717 73.0056 73.1315 73.3397C73.5041 73.6738 74.0888 73.8409 74.8855 73.8409C75.3224 73.8409 75.7401 73.7895 76.1384 73.6867C76.5368 73.5839 76.8259 73.4811 77.0058 73.3783L77.2757 73.2241L77.8539 74.7661C77.7768 74.8561 77.6612 74.9717 77.507 75.1131C77.3656 75.2416 76.993 75.4215 76.389 75.6528C75.7979 75.8712 75.1233 75.9805 74.3651 75.9805ZM75.5795 69.9087C75.6052 69.7288 75.618 69.5104 75.618 69.2534C75.618 68.9964 75.5152 68.7265 75.3096 68.4438C75.104 68.1482 74.7442 68.0005 74.2302 68.0005C73.729 68.0005 73.3435 68.1547 73.0737 68.4631C72.8038 68.7715 72.6239 69.2919 72.5339 70.0244L75.5795 69.9087Z" fill="#0D462E"/>
<path d="M81.4661 66.1886C82.1729 66.0344 82.809 65.9573 83.3744 65.9573C83.9398 65.9573 84.4088 65.9701 84.7815 65.9958V66.9596C85.1027 66.6897 85.5268 66.4713 86.0536 66.3042C86.5933 66.1243 87.1074 66.0344 87.5957 66.0344C88.855 66.0344 89.7352 66.3299 90.2364 66.921C90.7504 67.5122 91.0074 68.5338 91.0074 69.9858V73.6867C91.5086 73.8794 91.8619 74.0979 92.0675 74.3421L91.8748 75.8263H87.4415L87.2487 74.3421C87.4286 74.0979 87.782 73.8794 88.3089 73.6867V69.8702C88.3089 69.1763 88.1932 68.7137 87.9619 68.4824C87.7434 68.2382 87.3451 68.1161 86.7668 68.1161C86.1886 68.1161 85.6103 68.3217 85.032 68.7329V73.6867C85.5332 73.8794 85.8866 74.0979 86.0922 74.3421L85.8994 75.8263H81.4661L81.2734 74.3421C81.4533 74.0979 81.8066 73.8794 82.3335 73.6867V68.3281C81.8837 68.1739 81.5304 67.9555 81.2734 67.6728L81.4661 66.1886Z" fill="#0D462E"/>
<path d="M31.8033 108.755H26.8881L26.6953 107.155C26.8624 106.936 27.2157 106.724 27.7555 106.519V97.71C27.2286 97.5173 26.8752 97.2988 26.6953 97.0547L26.8881 95.4548H31.1865C33.2554 95.4548 34.8938 96.0331 36.1017 97.1896C37.3224 98.3461 37.9328 100.049 37.9328 102.298C37.9328 104.533 37.3803 106.172 36.2752 107.213C35.1829 108.241 33.6923 108.755 31.8033 108.755ZM30.5311 106.654H31.9189C32.8827 106.654 33.6409 106.365 34.1934 105.786C34.7588 105.195 35.0415 104.058 35.0415 102.375C35.0415 99.1621 33.8272 97.5558 31.3985 97.5558H30.5311V106.654Z" fill="#0D462E"/>
<path d="M45.8083 108.909C44.2663 108.909 43.1033 108.498 42.3195 107.675C41.5485 106.853 41.163 105.658 41.163 104.09C41.163 103.139 41.2979 102.323 41.5677 101.642C41.8376 100.948 42.2038 100.415 42.6664 100.042C43.5659 99.3227 44.6132 98.9629 45.8083 98.9629C47.0034 98.9629 47.9157 99.2713 48.5454 99.8881C49.1879 100.492 49.5092 101.584 49.5092 103.165C49.5092 104.09 49.053 104.553 48.1406 104.553H43.9579C44.0093 105.362 44.2149 105.934 44.5747 106.268C44.9473 106.602 45.532 106.769 46.3287 106.769C46.7657 106.769 47.1833 106.718 47.5816 106.615C47.98 106.512 48.2691 106.41 48.449 106.307L48.7189 106.153L49.2971 107.695C49.22 107.785 49.1044 107.9 48.9502 108.042C48.8088 108.17 48.4362 108.35 47.8322 108.581C47.2411 108.8 46.5665 108.909 45.8083 108.909ZM47.0227 102.837C47.0484 102.657 47.0612 102.439 47.0612 102.182C47.0612 101.925 46.9584 101.655 46.7528 101.372C46.5472 101.077 46.1874 100.929 45.6734 100.929C45.1722 100.929 44.7867 101.083 44.5169 101.392C44.247 101.7 44.0671 102.22 43.9772 102.953L47.0227 102.837ZM45.8276 97.7871L44.7867 97.1896C44.8638 96.6242 45.0823 95.9495 45.4421 95.1657C45.8019 94.369 46.1681 93.7843 46.5408 93.4116L48.5454 94.6452C48.3655 95.1593 47.9993 95.7311 47.4467 96.3607C46.8942 96.9776 46.3544 97.453 45.8276 97.7871Z" fill="#0D462E"/>
<path d="M58.9232 108.87H56.8029L53.6418 101.353C52.9993 101.147 52.5688 100.897 52.3503 100.601L52.5431 99.1171H56.9764L57.1692 100.601C57.0021 100.807 56.7258 100.993 56.3403 101.16L57.3812 104.071C57.6125 104.675 57.7795 105.272 57.8823 105.863L57.9209 106.133H58.1908C58.2936 105.491 58.4735 104.816 58.7305 104.109L59.7521 101.257C59.2766 101.077 58.9425 100.858 58.7497 100.601L58.9425 99.1171H63.1831L63.3758 100.601C63.1445 100.897 62.7205 101.147 62.1036 101.353L58.9232 108.87Z" fill="#0D462E"/>
<path d="M70.8534 108.909C69.3114 108.909 68.1485 108.498 67.3646 107.675C66.5936 106.853 66.2081 105.658 66.2081 104.09C66.2081 103.139 66.343 102.323 66.6129 101.642C66.8827 100.948 67.249 100.415 67.7116 100.042C68.6111 99.3227 69.6584 98.9629 70.8534 98.9629C72.0485 98.9629 72.9609 99.2713 73.5905 99.8881C74.2331 100.492 74.5543 101.584 74.5543 103.165C74.5543 104.09 74.0981 104.553 73.1858 104.553H69.003C69.0544 105.362 69.26 105.934 69.6198 106.268C69.9925 106.602 70.5772 106.769 71.3739 106.769C71.8108 106.769 72.2284 106.718 72.6268 106.615C73.0251 106.512 73.3143 106.41 73.4942 106.307L73.764 106.153L74.3423 107.695C74.2652 107.785 74.1495 107.9 73.9953 108.042C73.854 108.17 73.4813 108.35 72.8774 108.581C72.2862 108.8 71.6116 108.909 70.8534 108.909ZM72.0678 102.837C72.0935 102.657 72.1063 102.439 72.1063 102.182C72.1063 101.925 72.0035 101.655 71.7979 101.372C71.5923 101.077 71.2325 100.929 70.7185 100.929C70.2174 100.929 69.8319 101.083 69.562 101.392C69.2921 101.7 69.1122 102.22 69.0223 102.953L72.0678 102.837Z" fill="#0D462E"/>
<path d="M77.7231 95.0693C78.4428 94.9022 79.111 94.8187 79.7278 94.8187C80.3446 94.8187 80.865 94.838 81.2891 94.8765V106.615C81.7902 106.808 82.1436 107.026 82.3492 107.271L82.1565 108.755H77.7231L77.5304 107.271C77.7103 107.026 78.0637 106.808 78.5905 106.615V97.2089C78.1408 97.0547 77.7874 96.8362 77.5304 96.5535L77.7231 95.0693Z" fill="#0D462E"/>
<path d="M89.8145 108.909C88.2982 108.909 87.1738 108.504 86.4413 107.695C85.7089 106.885 85.3426 105.664 85.3426 104.032C85.3426 102.388 85.7474 101.135 86.557 100.274C87.3794 99.3998 88.5552 98.9629 90.0844 98.9629C91.6135 98.9629 92.7444 99.3484 93.4768 100.119C94.2221 100.89 94.5948 102.098 94.5948 103.743C94.5948 105.375 94.1772 106.647 93.3419 107.56C92.5195 108.459 91.3437 108.909 89.8145 108.909ZM88.1183 103.859C88.1183 105.915 88.7351 106.943 89.9687 106.943C90.5984 106.943 91.061 106.712 91.3565 106.249C91.6649 105.774 91.8191 105.003 91.8191 103.936C91.8191 101.931 91.1895 100.929 89.9302 100.929C89.3133 100.929 88.8572 101.154 88.5616 101.604C88.266 102.041 88.1183 102.792 88.1183 103.859Z" fill="#0D462E"/>
<path d="M97.7805 99.1171C98.4872 98.9629 99.1233 98.8858 99.6887 98.8858C100.254 98.8858 100.723 98.8987 101.096 98.9244V99.8689C101.957 99.2649 102.876 98.9629 103.852 98.9629C105.137 98.9629 106.069 99.3291 106.647 100.062C107.225 100.794 107.515 102.015 107.515 103.724C107.515 104.636 107.38 105.439 107.11 106.133C106.84 106.827 106.474 107.367 106.011 107.752C105.124 108.523 104.071 108.909 102.85 108.909C102.323 108.909 101.822 108.858 101.346 108.755V110.412C102.105 110.618 102.593 110.856 102.811 111.126L102.619 112.61H97.7805L97.5877 111.126C97.7548 110.894 98.1082 110.676 98.6479 110.47V101.257C98.1981 101.102 97.8447 100.884 97.5877 100.601L97.7805 99.1171ZM102.657 106.943C103.3 106.943 103.807 106.66 104.18 106.095C104.553 105.517 104.739 104.726 104.739 103.724C104.739 102.709 104.636 102.015 104.43 101.642C104.225 101.27 103.852 101.083 103.313 101.083C102.49 101.083 101.835 101.276 101.346 101.661V106.789C101.745 106.892 102.182 106.943 102.657 106.943Z" fill="#0D462E"/>
<path d="M110.708 99.1171C111.415 98.9629 112.051 98.8858 112.616 98.8858C113.181 98.8858 113.65 98.8987 114.023 98.9244V99.8689C114.884 99.2649 115.803 98.9629 116.779 98.9629C118.065 98.9629 118.996 99.3291 119.574 100.062C120.153 100.794 120.442 102.015 120.442 103.724C120.442 104.636 120.307 105.439 120.037 106.133C119.767 106.827 119.401 107.367 118.938 107.752C118.052 108.523 116.998 108.909 115.777 108.909C115.25 108.909 114.749 108.858 114.274 108.755V110.412C115.032 110.618 115.52 110.856 115.739 111.126L115.546 112.61H110.708L110.515 111.126C110.682 110.894 111.035 110.676 111.575 110.47V101.257C111.125 101.102 110.772 100.884 110.515 100.601L110.708 99.1171ZM115.584 106.943C116.227 106.943 116.735 106.66 117.107 106.095C117.48 105.517 117.666 104.726 117.666 103.724C117.666 102.709 117.563 102.015 117.358 101.642C117.152 101.27 116.779 101.083 116.24 101.083C115.417 101.083 114.762 101.276 114.274 101.661V106.789C114.672 106.892 115.109 106.943 115.584 106.943Z" fill="#0D462E"/>
<path d="M128.28 108.909C126.738 108.909 125.575 108.498 124.792 107.675C124.021 106.853 123.635 105.658 123.635 104.09C123.635 103.139 123.77 102.323 124.04 101.642C124.31 100.948 124.676 100.415 125.139 100.042C126.038 99.3227 127.085 98.9629 128.28 98.9629C129.475 98.9629 130.388 99.2713 131.017 99.8881C131.66 100.492 131.981 101.584 131.981 103.165C131.981 104.09 131.525 104.553 130.613 104.553H126.43C126.481 105.362 126.687 105.934 127.047 106.268C127.419 106.602 128.004 106.769 128.801 106.769C129.238 106.769 129.655 106.718 130.054 106.615C130.452 106.512 130.741 106.41 130.921 106.307L131.191 106.153L131.769 107.695C131.692 107.785 131.576 107.9 131.422 108.042C131.281 108.17 130.908 108.35 130.304 108.581C129.713 108.8 129.039 108.909 128.28 108.909ZM129.495 102.837C129.52 102.657 129.533 102.439 129.533 102.182C129.533 101.925 129.43 101.655 129.225 101.372C129.019 101.077 128.659 100.929 128.145 100.929C127.644 100.929 127.259 101.083 126.989 101.392C126.719 101.7 126.539 102.22 126.449 102.953L129.495 102.837Z" fill="#0D462E"/>
<path d="M135.381 99.1171C136.088 98.9629 136.724 98.8858 137.29 98.8858C137.855 98.8858 138.324 98.8987 138.697 98.9244V99.8881C139.005 99.6311 139.391 99.4127 139.853 99.2328C140.316 99.0529 140.734 98.9629 141.106 98.9629C142.571 98.9629 143.548 99.3291 144.036 100.062C144.357 99.7532 144.781 99.4962 145.308 99.2906C145.835 99.0721 146.323 98.9629 146.773 98.9629C148.187 98.9629 149.138 99.2842 149.626 99.9267C150.114 100.556 150.358 101.745 150.358 103.493V106.615C150.859 106.808 151.213 107.026 151.418 107.271L151.226 108.755H146.792L146.6 107.271C146.78 107.026 147.133 106.808 147.66 106.615V102.799C147.66 102.092 147.563 101.623 147.371 101.392C147.178 101.16 146.792 101.045 146.214 101.045C145.649 101.045 145.109 101.257 144.595 101.681C144.659 102.118 144.691 102.722 144.691 103.493V106.615C145.193 106.808 145.546 107.026 145.752 107.271L145.559 108.755H141.125L140.933 107.271C141.113 107.026 141.466 106.808 141.993 106.615V102.799C141.993 102.092 141.896 101.623 141.704 101.392C141.511 101.16 141.132 101.045 140.566 101.045C140.001 101.045 139.461 101.25 138.947 101.661V106.615C139.448 106.808 139.802 107.026 140.007 107.271L139.815 108.755H135.381L135.189 107.271C135.369 107.026 135.722 106.808 136.249 106.615V101.257C135.799 101.102 135.446 100.884 135.189 100.601L135.381 99.1171Z" fill="#0D462E"/>
<path d="M158.916 108.909C157.374 108.909 156.211 108.498 155.427 107.675C154.656 106.853 154.271 105.658 154.271 104.09C154.271 103.139 154.406 102.323 154.676 101.642C154.945 100.948 155.312 100.415 155.774 100.042C156.674 99.3227 157.721 98.9629 158.916 98.9629C160.111 98.9629 161.024 99.2713 161.653 99.8881C162.296 100.492 162.617 101.584 162.617 103.165C162.617 104.09 162.161 104.553 161.248 104.553H157.066C157.117 105.362 157.323 105.934 157.683 106.268C158.055 106.602 158.64 106.769 159.437 106.769C159.873 106.769 160.291 106.718 160.689 106.615C161.088 106.512 161.377 106.41 161.557 106.307L161.827 106.153L162.405 107.695C162.328 107.785 162.212 107.9 162.058 108.042C161.917 108.17 161.544 108.35 160.94 108.581C160.349 108.8 159.674 108.909 158.916 108.909ZM160.13 102.837C160.156 102.657 160.169 102.439 160.169 102.182C160.169 101.925 160.066 101.655 159.861 101.372C159.655 101.077 159.295 100.929 158.781 100.929C158.28 100.929 157.895 101.083 157.625 101.392C157.355 101.7 157.175 102.22 157.085 102.953L160.13 102.837Z" fill="#0D462E"/>
<path d="M166.017 99.1171C166.724 98.9629 167.36 98.8858 167.925 98.8858C168.491 98.8858 168.96 98.8987 169.332 98.9244V99.8881C169.654 99.6183 170.078 99.3998 170.605 99.2328C171.144 99.0529 171.658 98.9629 172.147 98.9629C173.406 98.9629 174.286 99.2585 174.787 99.8496C175.301 100.441 175.558 101.462 175.558 102.914V106.615C176.06 106.808 176.413 107.026 176.619 107.271L176.426 108.755H171.992L171.8 107.271C171.98 107.026 172.333 106.808 172.86 106.615V102.799C172.86 102.105 172.744 101.642 172.513 101.411C172.294 101.167 171.896 101.045 171.318 101.045C170.74 101.045 170.161 101.25 169.583 101.661V106.615C170.084 106.808 170.438 107.026 170.643 107.271L170.45 108.755H166.017L165.824 107.271C166.004 107.026 166.358 106.808 166.885 106.615V101.257C166.435 101.102 166.081 100.884 165.824 100.601L166.017 99.1171Z" fill="#0D462E"/>
<path d="M183.013 96.6884V99.1171H185.769V100.736H183.013V105.613C183.013 106.024 183.071 106.326 183.186 106.519C183.302 106.699 183.578 106.789 184.015 106.789C184.452 106.789 184.921 106.692 185.422 106.5L186 108.003C185.011 108.504 183.996 108.755 182.955 108.755C181.927 108.755 181.227 108.536 180.854 108.099C180.494 107.65 180.314 107.001 180.314 106.153V100.736H179.447L179.235 99.5605C179.44 99.3163 179.864 99.0721 180.507 98.828C180.661 97.7743 181.027 97.0611 181.606 96.6884H183.013Z" fill="#0D462E"/>
<defs>
<linearGradient id="paint0_linear" x1="52.472" y1="67.755" x2="179.107" y2="107.018" gradientUnits="userSpaceOnUse">
<stop offset="0.0367826" stop-color="#39E15E" stop-opacity="0"/>
<stop offset="0.582037" stop-color="#82E0DA"/>
</linearGradient>
<linearGradient id="paint1_linear" x1="27.7696" y1="77.2445" x2="124.622" y2="118.342" gradientUnits="userSpaceOnUse">
<stop stop-color="#82E0DA"/>
<stop offset="1" stop-color="#39E15E" stop-opacity="0"/>
</linearGradient>
</defs>
</svg>
